<?xml version="1.0" encoding="UTF-8" standalone="no"?>
<!-- Created with Inkscape (http://www.inkscape.org/) -->

<svg
   width="210mm"
   height="210mm"
   viewBox="0 0 210 210"
   version="1.1"
   id="svg1"
   inkscape:version="1.3.2 (091e20e, 2023-11-25, custom)"
   sodipodi:docname="digitalTwin.svg"
   xmlns:inkscape="http://www.inkscape.org/namespaces/inkscape"
   xmlns:sodipodi="http://sodipodi.sourceforge.net/DTD/sodipodi-0.dtd"
   xmlns="http://www.w3.org/2000/svg"
   xmlns:svg="http://www.w3.org/2000/svg">
  <sodipodi:namedview
     id="namedview1"
     pagecolor="#ffffff"
     bordercolor="#000000"
     borderopacity="0.25"
     inkscape:showpageshadow="2"
     inkscape:pageopacity="0.0"
     inkscape:pagecheckerboard="0"
     inkscape:deskcolor="#d1d1d1"
     inkscape:document-units="mm"
     showguides="false"
     inkscape:lockguides="false"
     inkscape:zoom="0.90028971"
     inkscape:cx="561.48593"
     inkscape:cy="397.0944"
     inkscape:window-width="1920"
     inkscape:window-height="1017"
     inkscape:window-x="1912"
     inkscape:window-y="-8"
     inkscape:window-maximized="1"
     inkscape:current-layer="layer3"
     inkscape:rotation="-90">
    <sodipodi:guide
       position="-147.59558,207.6468"
       orientation="1,0"
       id="guide38"
       inkscape:locked="false" />
    <sodipodi:guide
       position="-120.82581,219.76737"
       orientation="1,0"
       id="guide39"
       inkscape:locked="false" />
  </sodipodi:namedview>
  <defs
     id="defs1" />
  <g
     inkscape:groupmode="layer"
     id="layer3"
     inkscape:label="gesamt"
     transform="matrix(1.7510773,0,0,1.7510773,-70.134591,-145.0906)"
     sodipodi:insensitive="true">
    <g
       inkscape:label="Ebene 1 Kopie"
       inkscape:groupmode="layer"
       id="g38"
       transform="matrix(-0.95206714,0,0,0.95206714,199.69371,3.2196577)"
       sodipodi:insensitive="true"
       style="stroke-width:1.00023;stroke-dasharray:none">
      <rect
         style="fill:#000000;fill-opacity:1;stroke-width:1.00023;stroke-dasharray:none"
         id="rect25"
         width="29.663824"
         height="31.472593"
         x="54.624847"
         y="148.31912"
         ry="4.3410473" />
      <path
         style="fill:#000000;fill-opacity:1;stroke-width:1.00023;stroke-dasharray:none"
         id="path25"
         sodipodi:type="arc"
         sodipodi:cx="69.18544"
         sodipodi:cy="130.59317"
         sodipodi:rx="27.493301"
         sodipodi:ry="28.940315"
         sodipodi:start="0"
         sodipodi:end="6.1678186"
         sodipodi:arc-type="arc"
         d="m 96.678741,130.59317 a 27.493301,28.940315 0 0 1 -26.700458,28.92828 27.493301,28.940315 0 0 1 -28.240417,-27.25983 27.493301,28.940315 0 0 1 25.071682,-30.5005 27.493301,28.940315 0 0 1 29.686436,25.5007"
         sodipodi:open="true" />
      <rect
         style="fill:#000000;fill-opacity:1;stroke-width:1.00023;stroke-dasharray:none"
         id="rect26"
         width="24.193624"
         height="36.960968"
         x="74.159561"
         y="131.31668"
         ry="6.5115714" />
      <rect
         style="fill:#000000;fill-opacity:1;stroke-width:1.00023;stroke-dasharray:none"
         id="rect27"
         width="10.852625"
         height="29.663811"
         x="30.55374"
         y="145.05708"
         ry="3.0320001"
         rx="2.7755576e-17"
         transform="rotate(-22.341003)"
         inkscape:transform-center-y="-1.8087698" />
      <path
         style="fill:#ffffff;fill-opacity:1;stroke-width:1.00023;stroke-dasharray:none"
         id="path27"
         sodipodi:type="arc"
         sodipodi:cx="88.629715"
         sodipodi:cy="132.7637"
         sodipodi:rx="2.5322776"
         sodipodi:ry="2.1705236"
         sodipodi:start="0"
         sodipodi:end="6.2813655"
         sodipodi:arc-type="slice"
         d="m 91.161993,132.7637 a 2.5322776,2.1705236 0 0 1 -2.531126,2.17053 2.5322776,2.1705236 0 0 1 -2.533429,-2.16855 2.5322776,2.1705236 0 0 1 2.528821,-2.1725 2.5322776,2.1705236 0 0 1 2.535729,2.16657 l -2.532273,0.004 z" />
    </g>
    <g
       inkscape:label="Ebene 1"
       inkscape:groupmode="layer"
       id="layer1"
       transform="matrix(0.95206714,0,0,0.95206714,0.306285,3.2196577)"
       sodipodi:insensitive="true">
      <rect
         style="fill:#000000;fill-opacity:1;stroke-width:0.264583"
         id="rect1"
         width="29.663824"
         height="31.472593"
         x="54.624847"
         y="148.31912"
         ry="4.3410473" />
      <path
         style="fill:#000000;fill-opacity:1;stroke-width:0.264583"
         id="path1"
         sodipodi:type="arc"
         sodipodi:cx="69.18544"
         sodipodi:cy="130.59317"
         sodipodi:rx="27.493301"
         sodipodi:ry="28.940315"
         sodipodi:start="0"
         sodipodi:end="6.1678186"
         sodipodi:arc-type="arc"
         d="m 96.678741,130.59317 a 27.493301,28.940315 0 0 1 -26.700458,28.92828 27.493301,28.940315 0 0 1 -28.240417,-27.25983 27.493301,28.940315 0 0 1 25.071682,-30.5005 27.493301,28.940315 0 0 1 29.686436,25.5007"
         sodipodi:open="true" />
      <rect
         style="fill:#000000;fill-opacity:1;stroke-width:0.264583"
         id="rect2"
         width="24.193624"
         height="36.960968"
         x="74.159561"
         y="131.31668"
         ry="6.5115714" />
      <rect
         style="fill:#000000;fill-opacity:1;stroke-width:0.264583"
         id="rect3"
         width="10.852625"
         height="29.663811"
         x="30.55374"
         y="145.05708"
         ry="3.0320001"
         rx="2.7755576e-17"
         transform="rotate(-22.341003)"
         inkscape:transform-center-y="-1.8087698" />
      <path
         style="fill:#ffffff;fill-opacity:1;stroke-width:0.264583"
         id="path4"
         sodipodi:type="arc"
         sodipodi:cx="88.629715"
         sodipodi:cy="132.7637"
         sodipodi:rx="2.5322776"
         sodipodi:ry="2.1705236"
         sodipodi:start="0"
         sodipodi:end="6.2813655"
         sodipodi:arc-type="slice"
         d="m 91.161993,132.7637 a 2.5322776,2.1705236 0 0 1 -2.531126,2.17053 2.5322776,2.1705236 0 0 1 -2.533429,-2.16855 2.5322776,2.1705236 0 0 1 2.528821,-2.1725 2.5322776,2.1705236 0 0 1 2.535729,2.16657 l -2.532273,0.004 z" />
      <path
         style="fill:#ffffff;fill-opacity:1;stroke-width:0.280633"
         id="path5"
         sodipodi:type="arc"
         sodipodi:cx="62.94519"
         sodipodi:cy="170.79309"
         sodipodi:rx="2.8940315"
         sodipodi:ry="2.8488123"
         sodipodi:start="0"
         sodipodi:end="6.2813655"
         sodipodi:arc-type="slice"
         d="m 65.839222,170.79309 a 2.8940315,2.8488123 0 0 1 -2.892715,2.84881 2.8940315,2.8488123 0 0 1 -2.895347,-2.84622 2.8940315,2.8488123 0 0 1 2.89008,-2.8514 2.8940315,2.8488123 0 0 1 2.897977,2.84363 l -2.894027,0.005 z" />
      <path
         style="fill:#ffffff;fill-opacity:1;stroke-width:0.280633"
         id="path5-0"
         sodipodi:type="arc"
         sodipodi:cx="77.63427"
         sodipodi:cy="125.74673"
         sodipodi:rx="2.8940315"
         sodipodi:ry="2.8488123"
         sodipodi:start="0"
         sodipodi:end="6.2813655"
         sodipodi:arc-type="slice"
         d="m 80.528301,125.74673 a 2.8940315,2.8488123 0 0 1 -2.892715,2.84881 2.8940315,2.8488123 0 0 1 -2.895347,-2.84622 2.8940315,2.8488123 0 0 1 2.890081,-2.8514 2.8940315,2.8488123 0 0 1 2.897976,2.84362 l -2.894026,0.005 z" />
      <path
         style="fill:#ffffff;fill-opacity:1;stroke-width:0.280633"
         id="path5-3"
         sodipodi:type="arc"
         sodipodi:cx="54.285816"
         sodipodi:cy="126.37962"
         sodipodi:rx="2.8940315"
         sodipodi:ry="2.8488123"
         sodipodi:start="0"
         sodipodi:end="6.2813655"
         sodipodi:arc-type="slice"
         d="m 57.179848,126.37962 a 2.8940315,2.8488123 0 0 1 -2.892715,2.84882 2.8940315,2.8488123 0 0 1 -2.895347,-2.84622 2.8940315,2.8488123 0 0 1 2.89008,-2.85141 2.8940315,2.8488123 0 0 1 2.897977,2.84363 l -2.894027,0.005 z" />
      <path
         style="fill:#ffffff;fill-opacity:1;stroke-width:0.280633"
         id="path5-95"
         sodipodi:type="arc"
         sodipodi:cx="62.313751"
         sodipodi:cy="141.42876"
         sodipodi:rx="2.8940315"
         sodipodi:ry="2.8488123"
         sodipodi:start="0"
         sodipodi:end="6.2813655"
         sodipodi:arc-type="slice"
         d="m 65.207783,141.42876 a 2.8940315,2.8488123 0 0 1 -2.892715,2.84881 2.8940315,2.8488123 0 0 1 -2.895347,-2.84622 2.8940315,2.8488123 0 0 1 2.89008,-2.8514 2.8940315,2.8488123 0 0 1 2.897977,2.84362 l -2.894027,0.005 z" />
      <path
         style="fill:#ffffff;fill-opacity:1;stroke-width:0.280633"
         id="path5-4"
         sodipodi:type="arc"
         sodipodi:cx="68.554008"
         sodipodi:cy="110.95099"
         sodipodi:rx="2.8940315"
         sodipodi:ry="2.8488123"
         sodipodi:start="0"
         sodipodi:end="6.2813655"
         sodipodi:arc-type="slice"
         d="m 71.44804,110.95099 a 2.8940315,2.8488123 0 0 1 -2.892715,2.84881 2.8940315,2.8488123 0 0 1 -2.895347,-2.84622 2.8940315,2.8488123 0 0 1 2.890081,-2.8514 2.8940315,2.8488123 0 0 1 2.897976,2.84362 l -2.894027,0.005 z" />
      <rect
         style="fill:#ffffff;fill-opacity:1;stroke-width:0.264583"
         id="rect5"
         width="2.5322762"
         height="30.749088"
         x="61.498165"
         y="141.08405"
         rx="2.7755579e-17"
         ry="3.0320001" />
      <rect
         style="fill:#ffffff;fill-opacity:1;stroke-width:0.287069"
         id="rect5-5"
         width="2.8618433"
         height="18.087074"
         x="-18.772032"
         y="126.01202"
         rx="3.1367916e-17"
         ry="3.1582239"
         transform="matrix(0.3881375,-0.92160148,0.47999765,0.87726977,0,0)" />
      <rect
         style="fill:#ffffff;fill-opacity:1;stroke-width:0.318059"
         id="rect5-5-3"
         width="3.2131619"
         height="19.775414"
         x="-167.3167"
         y="-152.53049"
         rx="3.5218627e-17"
         ry="3.4530284"
         transform="matrix(-0.99240546,-0.12300975,0.72538851,-0.68833967,0,0)"
         inkscape:transform-center-x="0.099896356"
         inkscape:transform-center-y="-0.018258934" />
      <rect
         style="fill:#000000;fill-opacity:1;stroke-width:3.59202"
         id="rect6"
         width="3.472765"
         height="20.836592"
         x="71.112038"
         y="141.45668"
         rx="4.2585601e-16"
         ry="20.836592" />
      <path
         style="fill:#ffffff;fill-opacity:1;stroke-width:0.264583"
         id="path6"
         sodipodi:type="arc"
         sodipodi:cx="76.482704"
         sodipodi:cy="139.79977"
         sodipodi:rx="2.4456043"
         sodipodi:ry="2.4300876"
         sodipodi:start="0"
         sodipodi:end="6.2813655"
         sodipodi:arc-type="slice"
         d="m 78.928308,139.79977 a 2.4456043,2.4300876 0 0 1 -2.444491,2.43009 2.4456043,2.4300876 0 0 1 -2.446716,-2.42787 2.4456043,2.4300876 0 0 1 2.442265,-2.4323 2.4456043,2.4300876 0 0 1 2.448938,2.42566 l -2.4456,0.004 z" />
      <rect
         style="fill:#ffffff;fill-opacity:1;stroke-width:0.264583"
         id="rect8"
         width="14.01796"
         height="2.2609546"
         x="62.402557"
         y="139.97618"
         rx="3.1367916e-17"
         ry="1.1304773" />
      <rect
         style="fill:#ffffff;fill-opacity:1;stroke-width:0.264583"
         id="rect8-6"
         width="14.01796"
         height="2.2609546"
         x="126.14586"
         y="-78.41407"
         rx="3.1367916e-17"
         ry="1.1304773"
         transform="rotate(89.795859)" />
      <rect
         style="fill:#000000;fill-opacity:1;stroke-width:0.264583"
         id="rect9"
         width="3.1310935"
         height="3.2671249"
         x="73.509529"
         y="136.70908"
         rx="0.49175626"
         ry="0.52567166" />
      <path
         style="fill:#ffffff;fill-opacity:1;stroke-width:0.264583"
         id="path10"
         sodipodi:type="arc"
         sodipodi:cx="77.220345"
         sodipodi:cy="138.13632"
         sodipodi:rx="0.20066039"
         sodipodi:ry="0.30805609"
         sodipodi:start="0"
         sodipodi:end="6.2813655"
         sodipodi:arc-type="slice"
         d="m 77.421005,138.13632 a 0.20066039,0.30805609 0 0 1 -0.200569,0.30806 0.20066039,0.30805609 0 0 1 -0.200752,-0.30778 0.20066039,0.30805609 0 0 1 0.200387,-0.30833 0.20066039,0.30805609 0 0 1 0.200934,0.30749 l -0.20066,5.6e-4 z" />
    </g>
  </g>
</svg>
