<svg xmlns="http://www.w3.org/2000/svg" data-name="Layer 1" viewBox="0 0 100 125" x="0px" y="0px"><path d="M18,22V22a4,4,0,0,0,4,4h.13A13.9,13.9,0,0,1,36,39.9a6.93,6.93,0,0,0,1.16,3.84L44,54H38a2,2,0,0,0-2,2V67H27.82a6,6,0,0,0-5.68,4.06L20.29,76.5a4.15,4.15,0,0,0,2.21,5.21,4,4,0,0,0,5.29-2.41L29.25,75H36a8,8,0,0,0,8-8V62a8,8,0,0,0,7.75-6,8.24,8.24,0,0,0-1.22-6.63L49.62,48,44,39.57A22,22,0,0,0,22,18h0A4,4,0,0,0,18,22Z"/><path d="M79.62,48,74,39.57A22,22,0,0,0,52,18h0a4,4,0,0,0-4,4V22a4,4,0,0,0,4,4h.13A13.9,13.9,0,0,1,66,39.9a6.93,6.93,0,0,0,1.16,3.84L74,54H68a2,2,0,0,0-2,2V67H57.82a6,6,0,0,0-5.68,4.06L50.29,76.5a4.15,4.15,0,0,0,2.21,5.21,4,4,0,0,0,5.29-2.41L59.25,75H66a8,8,0,0,0,8-8V62a8,8,0,0,0,7.75-6,8.24,8.24,0,0,0-1.22-6.63Z"/><circle cx="57" cy="43" r="4"/><circle cx="27" cy="43" r="4"/></svg>