<svg fill="#000000" width="800px" height="800px" viewBox="0 0 1024 1024" xmlns="http://www.w3.org/2000/svg"><path d="M594.073 170.667c0-49.013-39.737-88.75-88.75-88.75-49.011 0-88.74 39.734-88.74 88.75s39.729 88.75 88.74 88.75c49.013 0 88.75-39.737 88.75-88.75zm40.96 0c0 71.635-58.075 129.71-129.71 129.71-71.633 0-129.7-58.074-129.7-129.71s58.067-129.71 129.7-129.71c71.635 0 129.71 58.075 129.71 129.71z"/><path d="M380.407 568.32V361.81c0-33.93 27.51-61.44 61.44-61.44h119.47c33.93 0 61.44 27.51 61.44 61.44v206.51c0 11.311 9.169 20.48 20.48 20.48s20.48-9.169 20.48-20.48V361.81c0-56.551-45.849-102.4-102.4-102.4h-119.47c-56.551 0-102.4 45.849-102.4 102.4v206.51c0 11.311 9.169 20.48 20.48 20.48s20.48-9.169 20.48-20.48zm15.383 61.653H211.996l-84.759-84.749c-29.092-29.092-76.271-29.092-105.363.001-29.144 29.144-29.144 76.323-.051 105.415l106.639 106.639c14.263 14.277 33.393 21.908 53.212 21.76.121.009 158.154.028 158.154.028v192.512c0 11.311 9.169 20.48 20.48 20.48s20.48-9.169 20.48-20.48V758.587c0-11.311-9.169-20.48-20.48-20.48H182.247c-9.735.09-18.358-3.322-24.815-9.785L50.786 621.676c-13.096-13.096-13.096-34.341 0-47.438 13.148-13.148 34.392-13.148 47.489-.051l90.758 90.748a20.481 20.481 0 0014.481 5.998h191.503c.415.024.946.054 1.644.092h17.828c18.58 0 33.649 15.069 33.649 33.649v267.551c0 11.311 9.169 20.48 20.48 20.48s20.48-9.169 20.48-20.48V704.674c0-41.201-33.407-74.609-74.609-74.609h-17.054c-.415-.024-.946-.054-1.644-.092zm423.903 40.96c5.431 0 10.64-2.157 14.481-5.998l90.757-90.747c13.097-13.097 34.342-13.097 47.438-.001 13.148 13.148 13.148 34.392.051 47.489L865.781 728.315c-6.463 6.469-15.086 9.881-24.142 9.763-3.94.272-3.94.272-4.667.468.62-.173.62-.173 4.184-.439H662.898c-11.311 0-20.48 9.169-20.48 20.48v213.637c0 11.311 9.169 20.48 20.48 20.48s20.48-9.169 20.48-20.48V779.067h157.778c20.029.186 39.263-7.45 53.595-21.795l106.632-106.632c29.092-29.092 29.092-76.271 0-105.364-29.144-29.144-76.323-29.144-105.415-.051l-84.758 84.748H627.416l-1.644.092h-17.054c-41.201 0-74.609 33.407-74.609 74.609v267.551c0 11.311 9.169 20.48 20.48 20.48s20.48-9.169 20.48-20.48V704.674c0-18.58 15.069-33.649 33.649-33.649h17.828l1.644-.092h191.503z"/></svg>