<!DOCTYPE svg PUBLIC "-//W3C//DTD SVG 1.1//EN" "http://www.w3.org/Graphics/SVG/1.1/DTD/svg11.dtd">
<!-- Uploaded to: SVG Repo, www.svgrepo.com, Transformed by: SVG Repo Mixer Tools -->
<svg height="800px" width="800px" version="1.1" id="Capa_1" xmlns="http://www.w3.org/2000/svg" xmlns:xlink="http://www.w3.org/1999/xlink" viewBox="0 0 455.683 455.683" xml:space="preserve" fill="#000000">
<g id="SVGRepo_bgCarrier" stroke-width="0"/>
<g id="SVGRepo_tracerCarrier" stroke-linecap="round" stroke-linejoin="round"/>
<g id="SVGRepo_iconCarrier"> <g> <g> <path style="fill:#010002;" d="M383.183,143.241c0-0.129,0.043-0.949,0.043-0.949c-0.022-67.215-54.704-121.896-121.94-121.896 c-46.658,0-87.362,27.309-107.789,68.164c-10.462-8.111-22.434-13.978-35.98-13.978c-33.176,0-60.182,26.985-60.182,60.161 c0,0,0.41,2.934,0.733,5.199C24.159,151.481,0,182.5,0,219.17c0,22.649,8.844,44.004,24.85,60.01 c16.027,16.027,37.361,24.871,60.01,24.871h289.501c44.846,0,81.322-36.455,81.322-81.279 C455.704,181.054,423.693,147.814,383.183,143.241z M374.383,280.064H84.859c-16.243,0-31.536-6.363-43.055-17.861 c-11.476-11.497-17.817-26.791-17.817-43.055c0-29.185,20.773-54.315,49.332-59.794l11.174-2.135l-1.855-12.856l-1.316-9.621 c0-19.975,16.221-36.174,36.196-36.174c11.821,0,22.951,5.781,29.746,15.531l13.59,19.565l7.571-22.563 c13.46-39.906,50.756-66.697,92.819-66.697c54.035,0,97.974,43.918,97.974,97.91l-1.208,22.973l13.525,0.237l2.826-0.086 c31.623,0,57.357,25.712,57.357,57.335C431.718,254.33,406.005,280.064,374.383,280.064z M378.006,392.297v42.991h-84.277v-42.991 c0-8.758,7.161-15.876,15.811-15.876h52.654C370.866,376.421,377.985,383.539,378.006,392.297z M200.824,344.82 c0-16.005,12.986-28.991,28.991-28.991s28.97,12.986,28.97,28.991c0,16.006-12.986,28.991-28.97,28.991 C213.81,373.811,200.824,360.847,200.824,344.82z M306.888,344.82c0-16.005,12.986-28.991,28.991-28.991 c16.006,0,28.991,12.986,28.991,28.991c0,16.006-12.986,28.991-28.991,28.991S306.888,360.847,306.888,344.82z M94.804,344.82 c0-16.005,12.986-28.991,28.991-28.991s28.991,12.986,28.991,28.991c0,16.006-12.986,28.991-28.991,28.991 S94.804,360.847,94.804,344.82z M271.964,392.297v42.991h-84.234v-42.991c0-8.758,7.097-15.876,15.833-15.876h52.568 C264.868,376.421,271.943,383.539,271.964,392.297z M165.944,392.297v42.991H81.667v-42.991c0-8.758,7.162-15.876,15.811-15.876 h52.654C158.783,376.421,165.944,383.539,165.944,392.297z"/> </g> <g> </g> <g> </g> <g> </g> <g> </g> <g> </g> <g> </g> <g> </g> <g> </g> <g> </g> <g> </g> <g> </g> <g> </g> <g> </g> <g> </g> <g> </g> </g> </g>
</svg>