<?xml version="1.0" encoding="utf-8"?><!-- Uploaded to: SVG Repo, www.svgrepo.com, Generator: SVG Repo Mixer Tools -->
<svg width="800px" height="800px" viewBox="0 0 24 24" fill="none" xmlns="http://www.w3.org/2000/svg">
<path d="M11.9615 8.22528C11.851 7.83849 11.5195 7.55557 11.1201 7.50724C10.7208 7.45892 10.3313 7.65459 10.1318 8.00386L8.41968 11H8C7.44772 11 7 11.4477 7 12C7 12.5523 7.44772 13 8 13H9C9.35886 13 9.6902 12.8077 9.86824 12.4961L10.6906 11.0571L12.0385 15.7747C12.144 16.1439 12.4515 16.4201 12.8299 16.4854C13.2082 16.5507 13.5906 16.3937 13.8137 16.0812L16.0147 12.9999C16.5602 12.992 17 12.5474 17 12C17 11.4477 16.5523 11 16 11H15.5C15.177 11 14.874 11.156 14.6863 11.4188L13.3918 13.2311L11.9615 8.22528Z" fill="#0F0F0F"/>
<path fill-rule="evenodd" clip-rule="evenodd" d="M7 3V4C5.34315 4 4 5.34315 4 7V17C4 18.6569 5.34315 20 7 20L7 21C7 22.6569 8.34315 24 10 24H14C15.6569 24 17 22.6569 17 21V20C18.6569 20 20 18.6569 20 17V13C20.5523 13 21 12.5523 21 12C21 11.4477 20.5523 11 20 11V7C20 5.34315 18.6569 4 17 4V3C17 1.34315 15.6569 0 14 0H10C8.34315 0 7 1.34315 7 3ZM10 2C9.44772 2 9 2.44772 9 3V4H15V3C15 2.44772 14.5523 2 14 2H10ZM7 18C6.44772 18 6 17.5523 6 17V7C6 6.44771 6.44772 6 7 6H17C17.5523 6 18 6.44772 18 7V17C18 17.5523 17.5523 18 17 18H7ZM9 20H15V21C15 21.5523 14.5523 22 14 22H10C9.44772 22 9 21.5523 9 21V20Z" fill="#0F0F0F"/>
</svg>